<svg width="172" height="125" viewBox="0 0 172 125" fill="none" xmlns="http://www.w3.org/2000/svg">
<mask id="mask0_150_39747" style="mask-type:alpha" maskUnits="userSpaceOnUse" x="0" y="0" width="173" height="125">
<path d="M128.809 27.6693C129.05 28.4401 129.025 29.265 128.738 30.021C128.661 30.1787 128.608 30.3464 128.582 30.5187C128.31 32.0803 128.109 33.6295 127.76 35.1973C127.542 35.9232 127.242 36.6242 126.866 37.2877C126.503 38.0343 126.141 38.7871 125.713 39.5088C125.487 39.8883 125.066 40.1807 124.839 40.554C123.971 41.8543 122.586 42.5262 121.239 43.1857C120.406 43.5238 119.518 43.7176 118.616 43.758C117.321 43.8949 116.025 43.9136 114.73 43.9634C114.379 43.956 114.029 43.9269 113.681 43.8762C113.493 43.8762 113.306 43.8203 113.124 43.8203C109.355 43.8949 105.573 43.8203 101.824 44.1002C99.3823 44.2806 96.9474 44.3242 94.5124 44.4237C93.1395 44.4797 91.7731 44.5544 90.4067 44.6353C89.7267 44.6726 89.0468 44.7846 88.3668 44.8032C86.8385 44.8468 85.3102 44.8033 83.7883 44.8841C81.321 45.0086 78.8601 45.189 76.3928 45.3694C75.6546 45.4192 74.9163 45.5063 74.1845 45.612C72.5008 45.8609 70.8235 46.1533 69.1463 46.3959C68.3238 46.5142 67.4949 46.5515 66.6725 46.6572C65.458 46.75 64.2524 46.9289 63.0654 47.1923C61.1226 47.7336 59.0762 48.026 57.1011 48.4926C55.9449 48.7701 54.8056 49.1087 53.6883 49.5067C52.0013 50.0379 50.3473 50.661 48.7342 51.3731C47.3793 52.0224 46.1591 52.9037 45.1336 53.9737C44.0013 55.1545 43.0643 56.4953 42.3554 57.9492C41.7078 59.3117 41.1444 60.7427 40.5745 62.1487C40.4903 62.354 40.4515 62.6464 40.8854 62.6216C41.9345 62.5593 42.9836 62.4785 44.0327 62.4598C45.7617 62.4162 47.5167 62.5656 49.2134 62.3602C51.0914 62.1301 52.9694 62.0989 54.8474 62.0181C55.8577 61.9807 56.8744 61.8625 57.8846 61.819C60.1901 61.7194 62.502 61.6634 64.8074 61.539C66.789 61.427 68.7771 61.2715 70.7588 61.0724C71.646 60.9791 72.5202 60.7302 73.4009 60.5685C73.6859 60.5187 73.9838 60.5685 74.2687 60.5125C75.1235 60.3756 75.9719 60.2138 76.8267 60.077C77.4354 59.9774 78.0571 59.9214 78.6659 59.8032C79.566 59.629 80.4532 59.405 81.3469 59.2246C82.2406 59.0442 83.2508 58.9073 84.1898 58.6958C84.8698 58.5465 85.5303 58.3163 86.1909 58.0737C87.4544 57.7297 88.6956 57.3142 89.908 56.8294C90.8544 56.3321 91.7518 55.7532 92.5891 55.0998C93.0035 54.8074 93.3727 54.4465 93.813 54.0732C93.6187 54.5647 93.5669 55.162 93.2237 55.4731C92.5761 56.0952 92.4596 56.8978 92.0645 57.5884C91.5481 58.4593 91.0812 59.3566 90.6657 60.2761C90.0956 61.5426 89.2828 62.6949 88.2696 63.673C87.191 64.7928 85.9368 65.7437 84.5525 66.4913C83.3791 67.1311 82.1399 67.6523 80.8547 68.0467C79.851 68.3577 78.912 68.7435 77.8758 69.0546C77.3836 69.2039 76.8591 69.2474 76.3604 69.3594C75.6028 69.5212 74.858 69.7078 74.1068 69.8882C74.0262 69.9093 73.9439 69.9239 73.8607 69.9318C71.918 70.106 69.9428 70.2242 68 70.473C65.7013 70.7641 63.3885 70.9406 61.0708 71.0019C60.5318 71.1018 59.9779 71.1018 59.4389 71.0019C59.0374 70.8774 58.4999 71.201 58.0206 71.2196C56.6024 71.2694 55.1842 71.2196 53.766 71.2818C51.1238 71.3565 48.4881 71.456 45.8459 71.5431C43.9355 71.6054 42.0251 71.6551 40.1147 71.7422C39.2534 71.7858 38.3857 71.8915 37.5244 71.9911C37.097 72.0409 36.9415 71.8853 37.0193 71.4934C37.1099 71.0019 37.1876 70.5166 37.2977 70.0313C37.6021 68.7248 37.8741 67.4059 38.2497 66.118C38.6253 64.8302 39.0721 63.6294 39.5449 62.3851C39.8946 61.4706 40.3284 60.5871 40.717 59.685C41.2156 58.5465 41.669 57.3893 42.2129 56.2756C42.6339 55.4109 43.1584 54.5896 43.6376 53.7497L45.5804 50.3155C46.228 49.1956 46.8173 48.0509 47.5232 46.9683C48.0801 46.1098 48.7666 45.3259 49.3883 44.4797C49.6602 44.1189 49.8934 43.7269 50.1783 43.3785C50.8259 42.5697 51.5059 41.7672 52.2053 40.9833C52.4568 40.7427 52.7372 40.5317 53.0407 40.3549C53.9538 39.7327 54.841 39.0173 55.8059 38.4325C57.0428 37.6797 58.325 36.9642 59.6267 36.3172C60.3914 35.9802 61.1815 35.6995 61.9904 35.4773C63.2856 35.0604 64.5808 34.656 65.8759 34.2827C66.4264 34.1272 66.9963 34.065 67.5532 33.9406C68.7059 33.6855 69.8521 33.3993 71.0049 33.1629C71.6525 33.0322 72.3 32.97 72.9088 32.8891C73.7964 32.8491 74.6796 32.7452 75.5509 32.5781C77.6297 32.0119 79.7603 32.1177 81.8714 31.9559C83.4904 31.8564 85.1094 31.763 86.7219 31.7133C89.7202 31.6199 92.7251 31.5515 95.7299 31.4831C99.8292 31.3898 103.928 31.3151 108.034 31.228C111.641 31.1533 115.248 31.1222 118.855 30.9854C120.286 30.8936 121.709 30.7149 123.117 30.4503C124.091 30.3415 125.051 30.133 125.979 29.8282C127.127 29.3993 128.114 28.6467 128.809 27.6693Z" fill="white"/>
<path d="M135 0.0338554C134.696 0.985741 134.391 1.93763 134.074 2.88329C133.757 3.82895 133.426 4.74973 133.09 5.64562C132.707 6.70327 132.371 7.77337 131.95 8.81235C131.451 10.0566 130.92 11.2387 130.337 12.4208C129.954 13.2718 129.481 14.0827 128.926 14.841C127.996 16.1607 126.893 17.359 125.642 18.4059C124.596 19.1204 123.487 19.745 122.327 20.2723C120.99 20.9061 119.529 21.2643 118.04 21.3237C116.388 21.4482 114.73 21.5477 113.066 21.5975C109.511 21.7033 105.943 21.7468 102.394 21.8588C101.559 21.9216 100.731 22.0401 99.9135 22.2134C99.2011 22.3316 98.5017 22.4934 97.7958 22.624C96.6974 22.7346 95.6324 23.0517 94.6615 23.5572C94.4201 23.6497 94.1636 23.7003 93.9038 23.7066C93.852 23.482 93.828 23.2522 93.8326 23.0222C93.9505 22.0603 94.1213 21.105 94.3442 20.1603C94.7236 18.5273 95.2236 16.9222 95.8401 15.3573C96.5267 13.7872 97.7515 12.4899 99.3112 11.6805C100.476 11.0562 101.785 10.7225 103.119 10.7099C108.144 10.629 113.17 10.7099 118.195 10.6352C119.683 10.7122 121.172 10.5201 122.586 10.0691C123.997 9.49672 125.603 9.32874 126.84 8.31464C127.883 7.44985 129.075 6.74683 130.124 5.88204C130.64 5.41988 131.077 4.88237 131.419 4.28934C132.183 3.04505 132.895 1.80075 133.621 0.556459C133.767 0.344171 133.978 0.180221 134.225 0.0867611C134.471 -0.00669886 134.742 -0.0251654 135 0.0338554Z" fill="white"/>
<path d="M28.8982 102.067C28.8982 103.499 28.8982 104.927 28.8982 106.355C28.8982 106.926 29.246 107.251 29.7457 107.544C30.0513 107.739 30.4215 107.807 30.7772 107.735C31.4049 107.592 32.0166 107.441 32.4523 106.838C32.8444 106.248 33.0669 105.562 33.096 104.855C33.0933 104.565 33.1954 104.284 33.3838 104.062C33.5764 103.931 33.8096 103.873 34.0418 103.896C34.2739 103.92 34.49 104.026 34.6512 104.193C34.7838 104.315 34.8757 104.474 34.9143 104.649C34.9529 104.824 34.9364 105.007 34.8671 105.173C34.7231 105.716 34.7539 106.29 34.955 106.815C35.0603 107.044 35.2507 107.225 35.4867 107.318C35.7887 107.413 36.0994 107.476 36.4142 107.509C36.5582 107.54 36.6901 107.612 36.814 107.652C36.9057 107.692 37.0061 107.708 37.1059 107.699C37.9335 107.433 38.5691 106.973 38.773 106.061C38.8618 105.71 38.9727 105.364 39.1048 105.026C39.1724 104.874 39.2976 104.755 39.4533 104.694C39.6089 104.633 39.7825 104.635 39.9364 104.701C40.1595 104.789 40.353 104.937 40.4945 105.129C40.636 105.322 40.7197 105.55 40.736 105.787C40.736 105.914 40.736 106.047 40.736 106.184C40.736 107.065 40.9119 107.033 41.5675 107.342C41.8557 107.498 42.1895 107.551 42.5123 107.491C42.8351 107.431 43.127 107.262 43.3386 107.013C43.6265 106.696 43.6904 106.192 43.9183 105.823C44.1982 105.351 44.1182 104.84 44.1902 104.344C44.2381 103.999 44.7099 103.828 45.1057 103.971C45.3024 104.045 45.4718 104.176 45.5918 104.347C45.7117 104.519 45.7764 104.722 45.7773 104.931C45.8093 105.498 45.8573 106.061 45.9213 106.624C45.9779 106.807 46.0813 106.972 46.2214 107.104C46.3616 107.235 46.5336 107.328 46.7208 107.374C47.8483 107.461 48.5679 107.037 48.8277 105.815C48.9677 105.173 48.9557 104.542 49.0396 103.911C49.0647 103.83 49.1095 103.756 49.1702 103.696C49.2308 103.636 49.3054 103.591 49.3874 103.566C49.6525 103.528 49.9219 103.528 50.187 103.566C50.3018 103.597 50.4092 103.65 50.5024 103.723C50.5957 103.796 50.673 103.887 50.7296 103.99C50.7861 104.094 50.8207 104.208 50.8312 104.325C50.8417 104.443 50.8279 104.561 50.7907 104.673C50.6588 104.908 50.5935 105.174 50.602 105.443C50.6104 105.712 50.6922 105.974 50.8387 106.2C50.8572 106.234 50.8706 106.27 50.8787 106.307C51.2505 107.465 52.4418 107.568 53.4453 107.251C54.3568 106.965 54.3488 106.918 54.3449 105.954C54.3449 103.31 54.3449 100.666 54.3449 98.0218C54.3449 97.4705 54.4008 97.407 54.9365 97.2603C55.0262 97.2201 55.1183 97.1856 55.2124 97.1571C55.3276 97.1393 55.445 97.1393 55.5602 97.1571C55.6322 97.1571 55.6961 97.2206 55.7721 97.2365C56.2199 97.3396 56.3478 97.4665 56.3358 97.9305C56.3158 98.9736 56.2559 100.013 56.2399 101.056C56.2199 102.674 56.2399 104.296 56.2039 105.914C56.1862 106.065 56.1991 106.218 56.2418 106.364C56.2846 106.51 56.3563 106.646 56.4528 106.763C56.5493 106.881 56.6686 106.979 56.8037 107.05C56.9388 107.122 57.0869 107.166 57.2393 107.18C57.7497 107.287 58.269 107.346 58.7905 107.358C59.1277 107.37 59.4601 107.276 59.7401 107.09C60.0202 106.903 60.2335 106.633 60.3497 106.319C60.385 106.183 60.3959 106.042 60.3817 105.902C60.3817 103.233 60.3817 100.568 60.3817 97.9028C60.3824 97.7305 60.4275 97.5612 60.513 97.4112C60.5984 97.2612 60.7211 97.1354 60.8695 97.0458C61.0179 96.9563 61.187 96.9061 61.3606 96.8998C61.5341 96.8936 61.7064 96.9317 61.8609 97.0104C62.0011 97.0945 62.1136 97.2173 62.1846 97.3638C62.2556 97.5103 62.282 97.6742 62.2607 97.8353V102.888C62.2607 103.947 62.2607 105.006 62.2607 106.061C62.2998 106.734 62.1326 107.404 61.781 107.981C61.4158 108.529 60.9016 108.964 60.2977 109.234C59.7958 109.454 59.2658 109.605 58.7226 109.682C58.4699 109.706 58.2156 109.706 57.963 109.682C57.875 109.682 57.791 109.615 57.7031 109.615C57.0465 109.588 56.4137 109.364 55.888 108.972C55.7609 108.888 55.6113 108.843 55.4583 108.843C55.3052 108.843 55.1556 108.888 55.0285 108.972C54.4288 109.262 53.8291 109.65 53.1095 109.607C52.758 109.587 52.4056 109.587 52.0541 109.607C51.2785 109.65 50.6468 109.294 50.0031 108.944C49.9348 108.91 49.8601 108.891 49.7837 108.887C49.7074 108.883 49.631 108.894 49.5594 108.921C49.1596 109.095 48.8117 109.317 48.4359 109.512C48.3806 109.542 48.3191 109.56 48.256 109.563C47.5247 109.605 46.7914 109.597 46.0612 109.539C45.644 109.412 45.2538 109.211 44.9098 108.944C44.8296 108.88 44.7284 108.847 44.6254 108.852C44.5224 108.856 44.4245 108.897 44.3501 108.968C43.8205 109.355 43.1876 109.577 42.531 109.607C41.5436 109.65 40.644 109.52 39.8924 108.814C39.8405 108.766 39.6645 108.814 39.5806 108.853C39.0822 109.228 38.5012 109.479 37.8855 109.587C37.6576 109.611 37.4377 109.702 37.2138 109.714C36.3632 109.754 35.5179 109.561 34.7711 109.155C34.4313 108.98 34.1474 108.623 33.6917 108.718C33.6157 108.718 33.5278 108.718 33.4638 108.742C32.992 108.972 32.5283 109.206 32.0645 109.44C32.0205 109.464 31.9886 109.531 31.9486 109.531C31.3529 109.571 30.7492 109.603 30.1695 109.631C30.0936 109.631 30.0176 109.587 29.9416 109.587C29.186 109.587 28.6183 109.234 28.0107 108.794C27.2391 108.254 27.0711 107.505 27.0472 106.712C26.9952 104.887 27.0472 103.063 27.0032 101.238C27.0032 100.116 26.9352 98.9974 26.9112 97.875C26.9082 97.6407 26.9769 97.4111 27.1083 97.2163C27.2396 97.0216 27.4274 96.871 27.6468 96.7843C27.7868 96.7388 27.9355 96.7261 28.0812 96.7473C28.227 96.7684 28.3658 96.8229 28.4867 96.9063C28.6076 96.9897 28.7073 97.0999 28.7781 97.2281C28.8488 97.3562 28.8885 97.499 28.8942 97.645C28.8942 99.1124 28.8942 100.58 28.8942 102.047L28.8982 102.067Z" fill="white"/>
<path d="M101.109 109.579C100.377 109.579 99.8894 109.555 99.4016 109.579C98.7948 109.554 98.1952 109.439 97.6225 109.238C97.1887 109.117 96.7249 109.162 96.3232 109.365C95.9953 109.56 95.6282 109.682 95.2478 109.722C94.5619 109.741 93.8763 109.679 93.2049 109.539C92.777 109.387 92.3731 109.174 92.0055 108.909C91.8216 108.806 91.6537 108.58 91.4778 108.576C91.2377 108.6 91.0106 108.695 90.8261 108.849C90.3055 109.208 89.7207 109.465 89.103 109.607C88.4795 109.725 87.8359 109.685 87.2324 109.489C86.629 109.294 86.0855 108.949 85.6528 108.488C85.221 107.934 84.9862 107.253 84.9852 106.553C84.9852 106.478 84.8132 106.351 84.7173 106.347C84.3175 106.327 83.9457 106.347 83.5579 106.347C83.2256 106.332 82.8945 106.298 82.5664 106.244C82.2706 106.196 82.0907 106.244 82.1267 106.601C82.1566 106.855 82.1566 107.112 82.1267 107.366C82.0427 107.973 82.0667 108.655 81.7828 109.163C81.4631 109.857 81.0429 110.501 80.5355 111.074C79.9758 111.63 79.3361 112.026 78.7244 112.514C78.3603 112.754 77.9532 112.922 77.5251 113.01C76.5336 113.303 76.5296 113.291 76.1058 112.316L76.0738 112.244C75.9859 112.05 75.782 111.82 75.826 111.661C75.8669 111.461 75.9534 111.274 76.0788 111.112C76.2043 110.95 76.3653 110.82 76.5496 110.729C77.1253 110.471 77.685 110.174 78.2487 109.892C78.7943 109.644 79.2813 109.285 79.6781 108.838C80.0748 108.391 80.3723 107.867 80.5515 107.299C80.6993 106.648 80.6435 105.969 80.3916 105.351C80.2817 105.03 80.2569 104.685 80.3196 104.352C80.3754 104.247 80.455 104.157 80.5522 104.088C80.6493 104.019 80.7613 103.973 80.8793 103.955C81.7988 103.84 82.7263 103.761 83.6499 103.717C84.5734 103.673 85.4249 103.717 86.3125 103.717C86.4076 103.706 86.504 103.717 86.5945 103.748C86.6849 103.78 86.7672 103.831 86.8351 103.898C86.903 103.965 86.9549 104.046 86.9869 104.136C87.0189 104.225 87.0303 104.321 87.0201 104.415C87.0201 104.78 86.9281 105.145 86.8962 105.51C86.7682 107.009 87.5918 107.747 89.135 107.493C89.549 107.375 89.9092 107.118 90.1544 106.767C90.6702 106.2 90.8661 105.486 91.2099 104.84C91.4741 104.307 91.7816 103.796 92.1294 103.313C92.857 102.373 93.8245 101.873 95.0439 102.123C95.6242 102.207 96.1539 102.498 96.5351 102.94C96.9709 103.511 97.5466 103.991 97.6745 104.736C97.7745 105.335 97.8544 105.926 97.8944 106.541C97.9144 106.878 98.0423 107.049 98.3741 107.092C99.0778 107.187 99.7774 107.322 100.481 107.378C100.989 107.418 100.977 107.314 100.833 106.835C100.525 105.795 100.161 104.736 100.773 103.662C100.984 103.238 101.241 102.839 101.54 102.472C101.744 102.254 102.12 102.202 102.412 102.075C103.356 101.639 104.347 101.869 105.315 101.877C105.672 101.927 106.009 102.072 106.29 102.297C106.69 102.547 106.466 103.467 106.066 103.701C105.774 103.872 105.458 104.042 105.195 103.88C104.695 103.574 104.183 103.701 103.671 103.693C103.448 103.714 103.231 103.778 103.032 103.882C102.834 103.986 102.658 104.128 102.516 104.3C102.2 104.617 102.244 105.117 102.396 105.585C102.648 106.378 103.296 106.628 103.995 106.731C104.571 106.794 105.152 106.787 105.726 106.712C105.897 106.702 106.067 106.732 106.223 106.8C106.379 106.868 106.517 106.971 106.626 107.102C106.734 107.232 106.811 107.386 106.848 107.551C106.886 107.717 106.883 107.888 106.842 108.052C106.708 108.342 106.478 108.577 106.19 108.718C105.39 109.115 104.495 109.194 103.639 109.409C102.684 109.631 101.776 109.492 101.109 109.579ZM94.4882 107.54C94.7201 107.485 94.9519 107.433 95.1838 107.37C95.3694 107.334 95.545 107.26 95.6988 107.151C95.8526 107.042 95.9809 106.901 96.0749 106.738C96.169 106.576 96.2267 106.395 96.244 106.208C96.2613 106.022 96.2379 105.833 96.1753 105.657C96.0554 105.193 95.6236 104.998 95.3957 104.637C95.3419 104.537 95.26 104.454 95.1598 104.399C94.825 104.252 94.4493 104.223 94.0956 104.318C93.742 104.412 93.4318 104.625 93.2168 104.919C93.1849 104.955 93.1289 104.97 93.0929 105.002C92.5972 105.399 92.5372 106.589 93.0329 106.985C93.4453 107.321 93.9556 107.515 94.4882 107.54Z" fill="white"/>
<path d="M141.107 101.299C140.991 102.488 140.84 103.678 140.776 104.868C140.747 105.511 140.796 106.156 140.924 106.788C140.981 106.918 141.065 107.035 141.171 107.131C141.277 107.227 141.403 107.299 141.539 107.343C142.139 107.553 142.739 107.839 143.402 107.74C143.802 107.676 144.202 107.589 144.582 107.498C145.173 107.363 145.761 107.22 146.345 107.073C146.451 107.047 146.55 106.995 146.632 106.924C146.715 106.852 146.779 106.763 146.82 106.662C146.861 106.561 146.877 106.452 146.868 106.343C146.858 106.235 146.823 106.13 146.764 106.038C146.301 105.248 145.682 104.557 144.945 104.007C144.807 103.879 144.688 103.73 144.594 103.567C144.326 103.171 143.91 102.873 143.662 102.417C143.449 102.004 143.384 101.532 143.477 101.078C143.571 100.623 143.818 100.215 144.178 99.9183C144.588 99.5363 145.042 99.2023 145.529 98.9228C146.022 98.67 146.533 98.4514 147.056 98.2684C147.764 97.9868 148.484 97.725 149.195 97.4474C149.398 97.3811 149.615 97.3671 149.824 97.4066C150.034 97.4461 150.23 97.538 150.395 97.6735C150.674 98.0225 150.618 98.4389 150.335 98.899C150.003 99.4463 149.443 99.5336 148.915 99.7279C148.004 100.061 147.02 100.216 146.221 100.827C146.075 100.917 145.965 101.054 145.908 101.214C145.852 101.375 145.852 101.55 145.909 101.711C145.977 101.913 146.201 102.06 146.333 102.246C146.732 102.837 147.408 103.171 147.856 103.706C148.204 104.103 148.42 104.638 148.731 105.078C148.978 105.46 149.064 105.923 148.971 106.367C148.886 106.806 148.688 107.216 148.396 107.557C147.996 108.124 147.388 108.37 146.836 108.679C146.379 108.921 145.887 109.091 145.377 109.183C144.742 109.306 144.086 109.326 143.442 109.397C143.23 109.421 143.042 109.481 142.815 109.524C142.779 109.524 142.739 109.552 142.707 109.544C141.967 109.429 141.231 109.306 140.492 109.187C140.294 109.142 140.109 109.053 139.951 108.927C139.793 108.8 139.666 108.64 139.58 108.457C139.256 107.918 139.044 107.87 138.453 107.882C137.651 107.949 136.844 107.905 136.054 107.751C135.64 107.653 135.257 107.453 134.941 107.171C134.625 106.888 134.385 106.531 134.243 106.133C134.135 105.818 134.087 105.486 134.103 105.154C134.115 104.715 134.182 104.279 134.303 103.857C134.497 103.256 134.885 102.734 135.406 102.373C136.114 101.838 136.978 101.644 137.737 101.239C138.05 101.084 138.351 100.907 138.637 100.708C138.792 100.583 138.915 100.424 138.997 100.244C139.068 100.105 139.017 99.8469 139.112 99.7874C139.33 99.6178 139.581 99.4937 139.848 99.4225C140.073 99.3611 140.311 99.3611 140.536 99.4225C140.675 99.4468 140.801 99.519 140.891 99.6264C140.982 99.7337 141.032 99.8694 141.031 100.01C141.031 100.442 141.031 100.878 141.031 101.31L141.107 101.299ZM137.641 105.749V105.673C137.895 105.705 138.151 105.705 138.405 105.673C138.637 105.617 138.838 105.475 138.969 105.277C139.09 104.997 139.149 104.694 139.142 104.39C139.135 104.085 139.062 103.786 138.929 103.512C138.749 103.032 138.341 102.952 137.657 103.048C137.314 103.117 136.988 103.255 136.699 103.453C136.411 103.65 136.165 103.904 135.978 104.198C135.578 104.705 135.738 105.352 136.25 105.483C136.762 105.614 137.197 105.665 137.641 105.749Z" fill="white"/>
<path d="M166.942 105.447C166.906 105.789 166.906 106.133 166.942 106.474C167.042 106.899 167.422 107.109 167.802 107.295C168.194 107.452 168.631 107.458 169.027 107.311C169.423 107.164 169.749 106.876 169.941 106.502C170.112 106.164 170.174 105.782 170.117 105.408C170.068 105.053 169.973 104.706 169.833 104.376C169.685 104.008 169.457 103.666 169.317 103.298C169.24 103.124 169.212 102.933 169.236 102.745C169.261 102.557 169.337 102.379 169.457 102.231C169.582 102.051 169.764 101.918 169.975 101.854C170.185 101.79 170.411 101.798 170.616 101.878C170.902 102.002 171.129 102.228 171.252 102.512C171.402 103.034 171.525 103.564 171.62 104.099C171.7 104.408 171.844 104.698 171.948 104.999C171.976 105.082 171.992 105.169 171.996 105.257C171.996 105.475 171.996 105.689 171.996 105.907C172.028 106.545 171.885 107.18 171.581 107.743C171.278 108.306 170.825 108.777 170.273 109.104C169.9 109.377 169.472 109.566 169.019 109.658C168.565 109.75 168.097 109.744 167.646 109.639C167.23 109.544 166.828 109.398 166.447 109.207C165.755 108.842 165.171 109.187 164.572 109.449C164.467 109.511 164.352 109.556 164.232 109.58C163.612 109.58 162.996 109.604 162.381 109.58C162.145 109.553 161.92 109.469 161.725 109.334C161.446 109.143 161.112 109.05 160.773 109.067C160.435 109.084 160.112 109.211 159.854 109.429C159.725 109.522 159.573 109.578 159.414 109.592C158.683 109.592 157.951 109.592 157.215 109.592C157.125 109.594 157.034 109.582 156.948 109.556C156.654 109.432 156.324 109.423 156.023 109.529C155.722 109.636 155.473 109.851 155.324 110.131C154.903 110.852 154.332 111.477 153.649 111.964C153.405 112.126 153.25 112.42 153.006 112.574C152.687 112.775 152.341 112.93 151.978 113.034C151.613 113.178 151.207 113.188 150.835 113.062C150.603 112.977 150.399 112.828 150.247 112.634C150.096 112.44 150.001 112.208 149.975 111.964C149.935 111.452 150.107 111.226 150.647 111.012C151.353 110.732 152.023 110.373 152.646 109.941C153.137 109.609 153.569 109.199 153.925 108.727C154.449 108.017 154.377 107.232 154.033 106.463C153.881 106.125 153.693 105.804 153.529 105.475C153.467 105.371 153.428 105.255 153.416 105.135C153.404 105.015 153.419 104.894 153.46 104.78C153.501 104.666 153.566 104.563 153.652 104.477C153.738 104.391 153.843 104.326 153.957 104.285C154.146 104.184 154.348 104.108 154.557 104.059C155.464 103.928 155.68 104.293 155.864 105.162C155.984 105.733 155.956 106.375 156.48 106.808C156.87 107.163 157.386 107.351 157.915 107.329C158.444 107.308 158.943 107.079 159.302 106.693C159.446 106.542 159.65 106.435 159.746 106.264C159.952 105.878 160.138 105.48 160.302 105.074C160.336 104.987 160.389 104.909 160.459 104.845C160.528 104.782 160.612 104.735 160.702 104.709C160.793 104.683 160.888 104.678 160.981 104.695C161.074 104.711 161.162 104.749 161.237 104.805C161.901 105.201 161.961 105.661 161.789 106.324C161.792 106.458 161.827 106.589 161.891 106.706C161.956 106.824 162.049 106.924 162.161 106.998C162.565 107.27 163.049 107.398 163.536 107.363C163.8 107.359 164.056 107.276 164.271 107.123C164.485 106.971 164.647 106.757 164.736 106.51C164.827 106.197 165.083 105.931 165.183 105.622C165.276 105.255 165.347 104.883 165.395 104.507C165.435 104.309 165.479 103.952 165.551 103.944C165.862 103.908 166.178 103.94 166.475 104.039C166.611 104.095 166.725 104.195 166.798 104.324C166.87 104.452 166.897 104.6 166.874 104.745C166.874 104.975 166.874 105.205 166.874 105.435L166.942 105.447Z" fill="white"/>
<path d="M112.475 108.936C112.524 107.895 112.758 106.87 113.166 105.91C113.257 105.67 113.416 105.462 113.624 105.311C113.832 105.16 114.08 105.071 114.338 105.057C114.466 105.05 114.594 105.074 114.709 105.13C114.825 105.185 114.924 105.269 114.998 105.373C115.072 105.477 115.117 105.598 115.131 105.725C115.144 105.852 115.124 105.979 115.073 106.096C114.675 106.985 114.49 107.953 114.534 108.924C114.562 109.335 114.694 109.731 114.917 110.078C115.141 110.425 115.449 110.71 115.813 110.907C116.544 111.332 117.324 111.673 118.212 111.534C119.311 111.355 120.366 111.07 120.934 109.947C121.088 109.639 121.167 109.3 121.167 108.956C121.167 108.612 121.088 108.273 120.934 107.964C120.798 107.639 120.706 107.298 120.602 106.961C120.462 106.521 120.311 106.084 120.203 105.64C120.157 105.412 120.174 105.177 120.25 104.957C120.327 104.738 120.461 104.542 120.638 104.391C120.774 104.27 120.942 104.191 121.122 104.162C121.302 104.133 121.487 104.156 121.654 104.228C122.018 104.331 122.158 104.7 122.273 105.057C122.439 105.589 122.638 106.109 122.869 106.616C122.969 106.844 123.139 107.035 123.354 107.162C123.569 107.289 123.819 107.347 124.069 107.326C124.829 107.27 125.584 107.167 126.331 107.016C127.019 106.878 127.511 105.747 127.239 105.085C126.967 104.423 126.683 103.697 126.411 103.003C126.348 102.85 126.343 102.68 126.397 102.524C126.451 102.368 126.559 102.237 126.703 102.154C126.85 102.025 127.015 101.919 127.195 101.841C127.337 101.801 127.486 101.793 127.632 101.816C127.778 101.84 127.917 101.894 128.039 101.976C128.161 102.058 128.264 102.165 128.341 102.29C128.417 102.416 128.466 102.556 128.482 102.701C128.586 103.153 128.786 103.586 128.91 104.034C129.169 104.882 129.22 105.78 129.058 106.652C128.879 107.403 128.493 108.09 127.943 108.635C127.661 108.901 127.327 109.109 126.963 109.245C126.287 109.562 125.548 109.722 124.8 109.713C124.548 109.698 124.297 109.658 124.053 109.594C123.783 109.543 123.504 109.589 123.265 109.723C123.026 109.858 122.843 110.072 122.749 110.328C122.598 110.725 122.425 111.113 122.23 111.49C122.134 111.665 121.914 111.764 121.778 111.923C121.166 112.617 120.346 112.902 119.499 113.192C118.447 113.553 117.392 113.414 116.349 113.342C115.784 113.243 115.242 113.043 114.749 112.751C113.837 112.313 113.13 111.544 112.774 110.602C112.617 110.058 112.517 109.5 112.475 108.936Z" fill="white"/>
<path d="M6.9099 107.351C7.55167 107.389 8.19513 107.389 8.83689 107.351C9.62878 107.253 10.4129 107.1 11.1837 106.895C11.3684 106.84 11.5289 106.725 11.6392 106.568C11.7495 106.411 11.8031 106.221 11.7913 106.031C11.8067 105.391 11.6269 104.762 11.2756 104.226C10.9667 103.71 10.8401 103.107 10.9158 102.513C10.9673 102.311 11.0838 102.131 11.2476 102.001C11.6074 101.664 12.5589 101.815 12.7668 102.255C13.1663 102.949 13.4816 103.688 13.7063 104.456C13.8982 105.4 13.9902 106.415 13.2706 107.268C13.1466 107.419 13.0827 107.625 12.9627 107.78C12.3984 108.478 11.6597 109.018 10.8199 109.346C10.0897 109.666 9.30639 109.85 8.50907 109.89C7.70949 109.917 6.94988 110.048 6.17429 110.013C5.34782 109.982 4.52846 109.849 3.73557 109.616C3.02438 109.409 2.35001 109.093 1.73662 108.68C0.946403 108.183 0.375056 107.408 0.137453 106.51C-0.0883597 105.723 -0.0347266 104.883 0.289373 104.131C0.437295 103.806 0.501262 103.437 0.641189 103.1C0.973015 102.306 1.53672 102.052 2.18838 102.727C2.25574 102.847 2.29437 102.981 2.3013 103.119C2.30823 103.256 2.28328 103.394 2.22836 103.52C1.95835 104.237 1.9001 105.016 2.06044 105.765C2.08843 105.979 2.36828 106.161 2.55619 106.356C3.02766 106.823 3.64496 107.118 4.30727 107.193C5.17082 107.288 6.03436 107.363 6.89391 107.446L6.9099 107.351Z" fill="white"/>
<path d="M74.8745 106.047C74.886 106.934 74.613 107.802 74.095 108.525C73.7131 109.061 73.1752 109.468 72.5534 109.691C71.9316 109.915 71.2558 109.944 70.6168 109.775C70.135 109.665 69.6803 109.461 69.2793 109.174C68.8784 108.887 68.5393 108.524 68.282 108.105C67.799 107.398 67.5876 106.542 67.6863 105.694C67.681 105.239 67.791 104.79 68.0061 104.389C68.5019 103.663 68.8057 102.822 69.5214 102.219C69.8642 101.934 70.2659 101.726 70.6983 101.611C71.1306 101.496 71.5831 101.476 72.024 101.553C72.3005 101.583 72.5669 101.672 72.8046 101.816C73.0422 101.959 73.2452 102.152 73.3993 102.382C73.7591 102.897 74.1989 103.33 74.4388 103.968C74.6805 104.638 74.8271 105.337 74.8745 106.047ZM71.3444 107.534C71.6494 107.497 71.9497 107.428 72.2399 107.328C72.4654 107.25 72.6646 107.112 72.8151 106.929C72.9656 106.745 73.0613 106.523 73.0915 106.288C73.1448 105.825 73.0688 105.356 72.8716 104.932C72.7256 104.556 72.4457 104.245 72.0848 104.06C71.7238 103.874 71.3068 103.826 70.9126 103.925C70.5388 104.029 70.2005 104.232 69.9331 104.512C69.6753 104.815 69.5168 105.189 69.479 105.583C69.4411 105.978 69.5256 106.375 69.7212 106.721C70.0291 107.347 70.6887 107.423 71.3484 107.534H71.3444Z" fill="white"/>
<path d="M25.0165 107.069C25.1604 107.795 24.8326 108.426 24.6167 109.072C24.4536 109.515 24.2613 109.947 24.041 110.365C23.9501 110.524 23.8371 110.67 23.7052 110.797C23.2373 111.355 22.6984 111.849 22.102 112.269C21.6295 112.573 21.1381 112.847 20.6308 113.09C20.443 113.207 20.2379 113.294 20.0231 113.348C19.9072 113.371 19.7472 113.264 19.6233 113.177C19.3714 112.979 19.0236 112.8 18.9237 112.535C18.5239 111.416 18.8517 111.293 19.7872 110.885C20.1604 110.721 20.5235 110.536 20.8746 110.329C21.2744 110.095 21.6462 109.838 22.0181 109.568C22.4677 109.226 22.791 108.746 22.9376 108.204C23.0554 107.975 23.1274 107.726 23.1495 107.47C23.0728 106.959 22.9387 106.459 22.7497 105.979C22.5378 105.435 22.206 104.939 21.9981 104.392C21.8461 103.996 21.7222 103.508 21.9981 103.155C22.1252 102.963 22.3074 102.813 22.5212 102.724C22.7349 102.636 22.9705 102.613 23.1974 102.659C23.7212 102.786 23.941 103.238 24.1529 103.643C24.4134 104.156 24.621 104.694 24.7726 105.249C24.9325 105.84 25.0005 106.439 25.1084 107.053L25.0165 107.069Z" fill="white"/>
<path d="M88.6753 118.615V123.426C88.6753 123.513 88.7072 123.628 88.6753 123.688C88.5764 123.81 88.4667 123.923 88.3474 124.025C88.2435 123.906 88.0476 123.787 88.0476 123.664C88.0196 122.546 88.0476 121.427 88.0476 120.305C88.0476 119.408 88.0476 118.508 88.0476 117.612C88.0476 117.334 88.1355 117.215 88.4234 117.215C89.5188 117.183 89.5028 117.183 89.8866 118.215C90.0451 118.549 90.2213 118.874 90.4144 119.19C90.6902 119.741 90.9341 120.305 91.2139 120.852C91.4538 121.312 91.7297 121.76 92.0135 122.236C92.0135 122.236 92.1135 122.2 92.1415 122.145C92.4413 121.562 92.7331 120.955 93.029 120.388L94.0484 118.361C94.1684 118.119 94.2923 117.877 94.4283 117.643C94.5122 117.497 94.6002 117.247 94.7201 117.247C95.0388 117.209 95.3609 117.209 95.6796 117.247C95.7116 117.247 95.7596 117.394 95.7596 117.473C95.7596 119.539 95.7596 121.61 95.7596 123.676C95.7596 123.95 95.6276 124.021 95.3798 124.025C94.5802 124.045 94.5802 124.049 94.5802 123.275C94.5802 121.899 94.5802 120.519 94.5802 119.143C94.5867 118.996 94.5521 118.85 94.4802 118.722C94.2284 119.206 93.9725 119.686 93.7246 120.174C93.4767 120.662 93.2369 121.153 92.993 121.645C92.6212 122.383 92.2494 123.121 91.8696 123.854C91.8376 123.918 91.7297 124.009 91.6817 123.993C91.585 123.966 91.5023 123.904 91.4498 123.819C91.146 123.164 90.8661 122.498 90.5543 121.836C90.3784 121.471 90.1305 121.146 89.9426 120.785C89.7907 120.487 89.6867 120.162 89.5428 119.86C89.4709 119.706 89.3309 119.587 89.247 119.436C89.0911 119.158 88.9511 118.869 88.8072 118.583L88.6753 118.615Z" fill="white"/>
<path d="M15.7414 105.828C15.7414 104.757 15.7414 103.687 15.7414 102.616C15.7174 101.029 15.6214 99.4428 15.6454 97.8801C15.6454 97.1305 16.0452 96.8172 16.6809 96.8648C16.941 96.8849 17.1839 97.002 17.3604 97.1926C17.537 97.3832 17.6342 97.6332 17.6324 97.892C17.6324 99.7164 17.6324 101.541 17.5964 103.361C17.5604 105.182 17.5204 107.054 17.4845 108.914C17.4951 109.039 17.4731 109.166 17.4206 109.28C17.3681 109.395 17.2869 109.495 17.1847 109.569C17.0825 109.644 16.9627 109.692 16.8367 109.707C16.7107 109.723 16.5827 109.707 16.465 109.66C15.8133 109.469 15.7774 109.426 15.7774 108.751C15.7774 107.78 15.7774 106.812 15.7774 105.844L15.7414 105.828Z" fill="white"/>
<path d="M59.8022 119.509C60.165 119.234 60.5471 118.985 60.9456 118.764C61.1971 118.642 61.4754 118.585 61.7549 118.598C62.0343 118.612 62.306 118.694 62.5447 118.839C62.7882 119.038 63.0022 119.271 63.1804 119.529C63.4243 119.339 63.6762 119.16 63.908 118.962C64.3838 118.565 65.827 118.411 66.2028 119.014C66.4283 119.309 66.5804 119.652 66.6466 120.017C66.6986 121.239 66.6666 122.464 66.6746 123.69C66.6746 123.932 66.5826 124.047 66.3348 124.031C66.2189 124.025 66.1028 124.025 65.9869 124.031C65.6191 124.054 65.5312 123.844 65.5312 123.531C65.5312 122.44 65.5312 121.35 65.5312 120.259C65.5312 119.422 64.6756 119.255 64.1159 119.426C63.9408 119.5 63.7711 119.586 63.6082 119.684C63.4546 119.75 63.3258 119.862 63.2397 120.004C63.1536 120.146 63.1147 120.312 63.1284 120.477C63.1284 121.512 63.1284 122.547 63.1284 123.579C63.1284 124.043 62.8806 124.011 62.5687 124.019C62.2569 124.027 62.049 123.967 62.061 123.563C62.089 122.583 62.061 121.599 62.061 120.616C62.0513 120.346 62.0015 120.078 61.9131 119.823C61.7851 119.426 61.1815 119.244 60.7137 119.426L60.3139 119.573C59.8182 119.759 59.7182 119.902 59.7182 120.453C59.7182 121.473 59.7182 122.496 59.7182 123.515C59.7182 123.682 59.6143 123.963 59.5103 123.987C59.2366 124.035 58.9565 124.035 58.6828 123.987C58.6388 123.987 58.5908 123.789 58.5908 123.686C58.5908 122.143 58.5908 120.6 58.5908 119.057C58.5908 118.783 58.6948 118.684 58.9546 118.708C59.057 118.718 59.1601 118.718 59.2625 118.708C59.6263 118.672 59.7422 118.867 59.7422 119.188C59.7822 119.267 59.7942 119.366 59.8022 119.509Z" fill="white"/>
<path d="M36.8344 120.46C37.0671 120.487 37.2912 120.564 37.4919 120.684C37.6926 120.804 37.8653 120.965 37.9984 121.156C38.1315 121.347 38.2221 121.565 38.264 121.793C38.3059 122.022 38.2983 122.257 38.2416 122.483C38.1812 122.739 38.0637 122.98 37.8976 123.185C37.7316 123.391 37.5213 123.558 37.2821 123.673C36.4825 124.133 35.591 124.006 34.7275 124.026C34.2037 124.026 33.676 124.026 33.1283 124.026C32.8445 124.026 32.7285 123.915 32.7285 123.629C32.7285 121.588 32.7285 119.546 32.7285 117.505C32.7285 117.295 32.7885 117.208 33.0124 117.208C34.0278 117.208 35.0473 117.164 36.0588 117.236C36.3583 117.228 36.6555 117.29 36.9273 117.415C37.1991 117.54 37.4381 117.726 37.626 117.957C37.8267 118.255 37.9251 118.609 37.9064 118.966C37.8876 119.324 37.7528 119.665 37.522 119.94C37.3101 120.135 37.0799 120.309 36.8344 120.46ZM34.9633 120.627V120.682C34.7077 120.666 34.4514 120.666 34.1957 120.682C34.1391 120.699 34.0876 120.73 34.0458 120.771C34.0039 120.813 33.973 120.864 33.9559 120.92C33.9359 121.682 33.9359 122.447 33.9559 123.213C33.9755 123.275 34.0101 123.331 34.0568 123.377C34.1036 123.422 34.1609 123.456 34.2237 123.474C34.9982 123.563 35.782 123.425 36.4786 123.078C36.6646 122.985 36.8203 122.842 36.9279 122.665C37.0354 122.488 37.0903 122.285 37.0862 122.078C37.0569 121.8 36.9527 121.536 36.7846 121.312C36.6165 121.088 36.3906 120.913 36.1307 120.805C35.745 120.725 35.3554 120.666 34.9633 120.627ZM33.9319 118.925C33.9319 119.27 33.9319 119.611 33.9319 119.956C33.9319 120.155 33.9959 120.23 34.1997 120.226C34.6755 120.226 35.1512 120.226 35.623 120.226C35.8387 120.204 36.0445 120.125 36.2184 119.996C36.3922 119.868 36.5278 119.695 36.6105 119.496C36.6861 119.332 36.7263 119.154 36.7283 118.974C36.7303 118.794 36.6942 118.615 36.6222 118.449C36.5502 118.284 36.444 118.135 36.3105 118.013C36.1769 117.89 36.019 117.797 35.8469 117.739C35.7976 117.725 35.7463 117.718 35.695 117.719C35.2072 117.719 34.7155 117.719 34.2277 117.692C34.0158 117.692 33.9279 117.771 33.9319 117.985C33.9399 118.287 33.9319 118.616 33.9319 118.925Z" fill="white"/>
<path d="M50.0594 120.514C49.9753 119.878 50.1366 119.233 50.5111 118.71C51.0226 117.956 51.7973 117.416 52.686 117.195C53.1196 117.051 53.5766 116.989 54.0333 117.012C54.5428 117.117 55.0439 117.259 55.5325 117.437C56.3001 117.694 56.6879 118.373 57.1317 118.96C57.2539 119.136 57.3321 119.338 57.3596 119.55C57.5235 120.586 57.5395 121.617 56.8918 122.513C56.5362 122.996 56.0844 123.401 55.5645 123.703C55.0342 124.001 54.4305 124.147 53.8214 124.123C53.1902 124.192 52.5537 124.053 52.0104 123.727C51.605 123.485 51.227 123.2 50.883 122.878C50.5823 122.566 50.353 122.193 50.2109 121.785C50.0687 121.377 50.0171 120.944 50.0594 120.514ZM56.1202 120.312C56.1633 119.543 55.92 118.785 55.4366 118.182C55.2745 117.953 55.063 117.763 54.8174 117.626C54.5719 117.489 54.2985 117.408 54.0173 117.389C52.9299 117.274 52.1743 117.786 51.6785 118.722C51.4281 119.299 51.3185 119.927 51.3587 120.554C51.307 121.318 51.5047 122.079 51.9224 122.723C52.1716 123.11 52.5391 123.406 52.9709 123.57C53.4027 123.733 53.876 123.755 54.3211 123.632C54.5314 123.605 54.7325 123.53 54.9088 123.414C55.2224 123.083 55.5098 122.729 55.7684 122.355C56.1762 121.823 56.0842 121.185 56.1202 120.312Z" fill="white"/>
<path d="M128.658 124.124C128.171 124.107 127.688 124.025 127.223 123.878C126.359 123.481 125.564 122.973 125.256 121.954C125.08 121.497 124.98 121.015 124.96 120.526C124.955 119.795 125.19 119.082 125.629 118.495C126.068 117.907 126.688 117.477 127.395 117.27C127.879 117.135 128.354 116.874 128.894 116.996C129.326 117.108 129.758 117.215 130.189 117.334C130.793 117.55 131.3 117.971 131.621 118.523C131.641 118.577 131.648 118.635 131.64 118.692C131.632 118.748 131.611 118.802 131.577 118.849C131.473 118.956 131.333 119.079 131.177 118.849C130.905 118.484 130.6 118.146 130.265 117.837C129.754 117.393 129.118 117.488 128.506 117.568C127.679 117.671 127.239 118.333 126.707 118.845C126.586 119.02 126.514 119.224 126.499 119.436C126.321 120.197 126.335 120.989 126.539 121.744C126.651 122.141 126.863 122.503 127.156 122.796C127.448 123.089 127.811 123.303 128.21 123.418C128.542 123.557 128.904 123.609 129.262 123.569C129.62 123.529 129.962 123.397 130.253 123.188C130.629 122.944 130.94 122.615 131.161 122.228C131.245 122.041 131.305 122.014 131.497 122.133C131.689 122.252 131.808 122.406 131.669 122.589C131.262 123.197 130.673 123.663 129.985 123.921C129.55 124.027 129.106 124.095 128.658 124.124Z" fill="white"/>
<path d="M70.7484 123.334C70.4486 123.54 70.2047 123.699 69.9489 123.87C69.6443 123.998 69.3162 124.063 68.9853 124.059C68.6543 124.056 68.3277 123.984 68.0259 123.85C67.6541 123.576 67.5221 122.692 67.742 122.156C68.0059 121.53 68.5416 121.288 69.1293 121.062C69.3612 120.974 69.5811 120.859 69.8089 120.772C69.9268 120.727 70.0507 120.699 70.1767 120.689C70.6325 120.649 70.7085 120.586 70.6805 120.118C70.6886 119.87 70.6408 119.623 70.5406 119.396C70.4276 119.213 70.255 119.074 70.0513 119.002C69.8477 118.93 69.6253 118.929 69.4211 118.999C69.2374 119.082 69.0826 119.217 68.9765 119.387C68.8704 119.557 68.8178 119.755 68.8255 119.955C68.8255 120.233 68.7655 120.475 68.4257 120.494C68.3467 120.507 68.266 120.502 68.1893 120.479C68.1126 120.457 68.0419 120.418 67.9822 120.365C67.9225 120.313 67.8754 120.247 67.8442 120.174C67.8131 120.101 67.7986 120.022 67.802 119.943C67.802 119.602 67.802 119.261 68.2458 119.186C68.6136 118.523 69.3212 118.658 69.8809 118.591C70.3891 118.557 70.8963 118.667 71.3441 118.908C71.4821 119.015 71.5947 119.151 71.6742 119.306C71.7536 119.46 71.7979 119.631 71.8039 119.804C71.8559 121.101 71.8279 122.406 71.8319 123.707C71.8319 123.925 71.7599 124.048 71.516 124.024C71.4269 124.018 71.3374 124.018 71.2482 124.024C70.7564 124.044 70.6605 123.933 70.7484 123.334ZM70.7085 122.009C70.7085 121.795 70.7085 121.577 70.7085 121.359C70.7085 121.054 70.5526 121.006 70.3087 121.117C69.9689 121.272 69.653 121.482 69.3092 121.621C69.182 121.671 69.0674 121.748 68.9734 121.846C68.8795 121.945 68.8085 122.063 68.7655 122.192C68.6981 122.341 68.6773 122.506 68.7058 122.666C68.7343 122.827 68.8108 122.975 68.9254 123.092C69.0239 123.229 69.1664 123.327 69.3294 123.372C69.4923 123.417 69.6658 123.405 69.8209 123.338C70.6205 122.993 70.7285 123.255 70.6965 122.148L70.7085 122.009Z" fill="white"/>
<path d="M135.606 124.056C134.095 124.215 132.704 122.803 132.808 121.28C132.826 120.557 133.129 119.871 133.653 119.369C134.176 118.866 134.878 118.588 135.606 118.595C137.277 118.619 138.429 119.745 138.405 121.315C138.353 122.64 137.301 124.199 135.606 124.056ZM134.007 121.208C134.099 121.74 134.115 122.398 134.531 122.954C134.67 123.172 134.865 123.35 135.096 123.469C135.327 123.588 135.586 123.644 135.846 123.632C136.518 123.576 136.814 123.144 137.014 122.474C137.213 121.803 137.05 121.216 136.994 120.594C136.938 119.971 136.766 119.487 136.126 119.269C135.998 119.225 135.898 119.083 135.778 119.071C135.538 119.003 135.283 119.003 135.043 119.071C134.235 119.495 134.019 120.249 134.043 121.208H134.007Z" fill="white"/>
<path d="M109.536 124.06C109.168 124.088 108.798 124.039 108.451 123.914C108.104 123.79 107.787 123.594 107.522 123.339C107.258 123.083 107.051 122.775 106.915 122.434C106.78 122.094 106.719 121.728 106.738 121.363C106.703 120.626 106.964 119.906 107.464 119.361C107.964 118.816 108.662 118.49 109.404 118.455C110.146 118.421 110.872 118.68 111.422 119.176C111.971 119.672 112.3 120.364 112.335 121.101C112.371 122.739 111.055 124.23 109.536 124.06ZM107.977 120.994C107.936 121.389 107.98 121.789 108.107 122.167C108.234 122.544 108.44 122.891 108.712 123.183C108.854 123.362 109.045 123.496 109.262 123.571C109.479 123.646 109.713 123.657 109.936 123.603C110.221 123.535 110.478 123.383 110.673 123.166C110.868 122.949 110.991 122.678 111.027 122.39C111.107 121.852 111.107 121.305 111.027 120.768C111.032 120.454 110.945 120.146 110.779 119.88C110.612 119.613 110.373 119.4 110.088 119.264C109.925 119.159 109.749 119.075 109.564 119.015C109.052 118.919 108.712 119.264 108.405 119.57C108.226 119.758 108.095 119.984 108.021 120.231C107.946 120.479 107.931 120.74 107.977 120.994Z" fill="white"/>
<path d="M99.6135 124.05C98.9379 124.173 98.3542 123.824 97.8345 123.38C97.5518 123.139 97.324 122.841 97.1661 122.506C97.0083 122.171 96.924 121.806 96.9189 121.437C96.938 120.694 97.2212 119.981 97.7185 119.426C98.0946 119.042 98.5745 118.774 99.1003 118.655C99.6262 118.535 100.176 118.569 100.683 118.752C101.189 118.936 101.632 119.26 101.957 119.687C102.283 120.114 102.477 120.625 102.516 121.159C102.508 122.813 101.345 124.165 99.6135 124.05ZM101.341 121.563H101.257C101.277 121.335 101.277 121.106 101.257 120.877C101.165 120.382 101.129 119.882 100.661 119.509C100.013 118.997 99.7215 118.91 99.0298 119.247C98.5421 119.485 98.0144 120.619 98.1423 121.159C98.2343 121.556 98.3142 121.92 98.4182 122.297C98.4793 122.609 98.6257 122.899 98.8415 123.134C99.0573 123.369 99.334 123.54 99.6415 123.63C100.073 123.757 100.989 123.32 101.089 122.908C101.189 122.495 101.261 122.008 101.341 121.563Z" fill="white"/>
<path d="M82.3984 123.302C82.1445 123.589 81.8224 123.808 81.4614 123.94C81.1004 124.071 80.712 124.111 80.3315 124.056C80.1067 124.015 79.8986 123.911 79.7314 123.756C79.5643 123.602 79.4451 123.403 79.388 123.183C79.2741 122.813 79.3115 122.412 79.4919 122.069C79.766 121.603 80.2027 121.253 80.7193 121.085C81.187 120.923 81.6668 120.8 82.1425 120.657C82.4743 120.554 82.4184 120.26 82.4144 120.034C82.4176 119.898 82.3934 119.762 82.3434 119.635C82.2933 119.508 82.2183 119.392 82.1227 119.294C82.0272 119.196 81.9129 119.117 81.7866 119.063C81.6603 119.009 81.5244 118.981 81.3869 118.979C81.1836 119.004 80.9945 119.096 80.8497 119.239C80.7048 119.383 80.6125 119.571 80.5873 119.772C80.5921 119.935 80.5621 120.098 80.4994 120.248C80.3075 120.581 80.0516 120.609 79.7278 120.379C79.5119 120.221 79.396 119.638 79.5879 119.455C79.8309 119.18 80.1273 118.956 80.4594 118.797C81.2012 118.555 81.9988 118.538 82.7502 118.749C82.9602 118.813 83.1418 118.946 83.2648 119.126C83.3877 119.307 83.4446 119.524 83.4258 119.741C83.4578 121.069 83.4258 122.394 83.4258 123.707C83.4258 123.929 83.3499 124.044 83.114 124.032C83.0235 124.026 82.9327 124.026 82.8421 124.032C82.5183 124.068 82.3544 123.945 82.4064 123.604C82.4092 123.503 82.4065 123.403 82.3984 123.302ZM82.3984 120.923C82.1465 121.03 81.9586 121.125 81.7587 121.188C81.2689 121.339 80.8367 121.633 80.5194 122.033C80.4066 122.161 80.3461 122.325 80.3498 122.495C80.3535 122.665 80.4211 122.827 80.5394 122.949C80.6395 123.129 80.8029 123.266 80.9982 123.334C81.1936 123.402 81.4074 123.396 81.5988 123.318C81.9306 123.211 82.3384 123.052 82.3984 122.66C82.4353 122.087 82.4406 121.512 82.4144 120.938L82.3984 120.923Z" fill="white"/>
<path d="M42.5311 119.582C42.7472 119.371 42.9741 119.171 43.2108 118.983C43.489 118.797 43.8068 118.676 44.1395 118.63C44.4723 118.585 44.8111 118.616 45.1298 118.721C45.2173 118.743 45.2931 118.797 45.3417 118.872C45.5256 119.269 45.8654 119.586 45.8534 120.094C45.8214 121.284 45.8534 122.442 45.8534 123.612C45.8534 123.925 45.7535 124.044 45.4296 124.036C44.778 124.036 44.782 124.036 44.782 123.378C44.782 122.584 44.782 121.748 44.782 120.931C44.7687 120.565 44.7232 120.201 44.646 119.844C44.6073 119.746 44.5495 119.658 44.4759 119.582C44.4024 119.507 44.3146 119.447 44.2176 119.406C44.1206 119.365 44.0163 119.343 43.9107 119.342C43.8052 119.341 43.7004 119.36 43.6026 119.4C43.3467 119.462 43.1051 119.573 42.891 119.725C42.7688 119.802 42.6682 119.909 42.5984 120.035C42.5285 120.161 42.4917 120.303 42.4912 120.447C42.5191 121.502 42.4912 122.565 42.4912 123.62C42.4912 124.072 42.2433 124.016 41.9474 124.04C41.6516 124.064 41.4517 123.996 41.4597 123.608C41.4797 122.105 41.4597 120.601 41.4597 119.094C41.4597 118.785 41.5317 118.678 41.8595 118.698C42.5831 118.698 42.4672 118.698 42.4752 119.289C42.4912 119.348 42.5152 119.408 42.5311 119.582Z" fill="white"/>
<path d="M117.081 123.163C117.157 123.068 117.204 123.012 117.248 122.953C117.444 122.687 117.556 122.695 117.744 122.953C118.144 123.551 118.992 123.869 119.583 123.492C119.772 123.333 119.941 123.152 120.087 122.953C119.739 122.116 118.952 121.846 118.228 121.525C117.504 121.204 116.945 120.184 117.428 119.399C117.54 119.192 117.699 119.015 117.893 118.881C118.087 118.748 118.31 118.661 118.544 118.63C118.979 118.542 119.429 118.573 119.847 118.721C120.193 118.903 120.493 119.159 120.727 119.47C120.759 119.498 120.623 119.688 120.567 119.803C120.46 119.763 120.358 119.709 120.263 119.645C119.863 119.296 119.463 118.915 118.868 118.971C118.436 119.01 117.956 119.458 118.068 119.803C118.129 120.026 118.265 120.222 118.452 120.359C118.784 120.557 119.187 120.632 119.511 120.831C120.023 121.144 120.611 121.315 120.931 121.937C121.294 122.651 120.963 123.226 120.531 123.639C119.811 124.321 118.932 124.103 118.1 123.952C117.74 123.881 117.432 123.444 117.081 123.163Z" fill="white"/>
<path d="M104.982 117.82C104.982 118.673 104.982 118.681 105.818 118.704C106.046 118.704 106.134 118.784 106.142 119.014C106.15 119.244 105.982 119.252 105.814 119.252C104.982 119.271 104.982 119.275 104.982 120.116C104.982 120.957 104.982 121.849 104.982 122.714C104.982 123.321 105.382 123.527 105.918 123.242C106.018 123.186 106.17 123.242 106.318 123.242C106.3 123.364 106.26 123.482 106.202 123.591C105.766 124.15 105.15 124.126 104.535 124.055C104.275 124.023 103.987 123.499 103.987 123.099C103.987 121.988 103.987 120.878 103.987 119.771C103.987 119.264 103.987 119.264 103.491 119.26C103.402 119.274 103.312 119.274 103.223 119.26C103.143 119.213 103.071 119.156 103.007 119.089C103.075 119.018 103.131 118.903 103.215 118.875C103.615 118.756 104.087 118.732 104.271 118.272C104.411 117.935 104.479 117.57 104.602 117.229C104.668 117.114 104.75 117.01 104.846 116.92C104.912 117.026 104.962 117.14 104.994 117.261C105.002 117.447 104.998 117.634 104.982 117.82Z" fill="white"/>
<path d="M76.9015 119.553C76.9876 119.446 77.0626 119.33 77.1254 119.208C77.2773 118.787 77.6571 118.712 78.0129 118.597C78.1177 118.567 78.2278 118.56 78.3358 118.576C78.4437 118.592 78.5469 118.63 78.6383 118.69C78.7297 118.749 78.8072 118.827 78.8656 118.918C78.9239 119.01 78.9617 119.112 78.9764 119.22C78.9764 119.557 78.8684 119.735 78.5126 119.692C78.2248 119.656 77.9409 119.596 77.6531 119.565C77.5553 119.549 77.4552 119.568 77.3692 119.616C77.1656 119.712 76.9931 119.862 76.8715 120.05C76.7499 120.238 76.6841 120.456 76.6816 120.679C76.7136 121.635 76.6816 122.591 76.6816 123.547C76.6816 123.943 76.5896 124.035 76.1339 124.031C75.5422 124.031 75.5342 124.031 75.5342 123.563C75.5342 122.071 75.5342 120.576 75.5342 119.085C75.5342 118.764 75.6341 118.645 75.934 118.688C76.0229 118.7 76.1129 118.7 76.2018 118.688C76.5537 118.645 76.7096 118.787 76.6776 119.14C76.681 119.248 76.6944 119.356 76.7176 119.462L76.9015 119.553Z" fill="white"/>
<path d="M114.398 119.57C114.598 119.399 114.757 119.316 114.829 119.173C115.189 118.535 115.769 118.57 116.353 118.689C116.664 118.753 116.72 119.05 116.7 119.332C116.702 119.386 116.691 119.441 116.668 119.49C116.645 119.54 116.611 119.584 116.567 119.618C116.524 119.652 116.474 119.675 116.42 119.686C116.366 119.697 116.31 119.695 116.257 119.681C116.002 119.622 115.742 119.583 115.481 119.566C115.237 119.559 114.998 119.641 114.809 119.796C114.589 120.067 114.451 120.394 114.41 120.74C114.362 121.692 114.378 122.648 114.41 123.603C114.41 123.96 114.266 124.04 113.95 124.024C113.634 124.008 113.366 124.063 113.374 123.591C113.402 122.14 113.374 120.688 113.374 119.229C113.374 118.67 113.374 118.685 113.938 118.666C114.278 118.666 114.45 118.741 114.39 119.106C114.383 119.26 114.385 119.415 114.398 119.57Z" fill="white"/>
<path d="M74.3866 121.291C74.3866 122.057 74.3866 122.822 74.3866 123.588C74.3866 124.032 74.1187 124.024 73.8029 124.036C73.4871 124.048 73.2512 123.968 73.2552 123.584C73.2552 122.128 73.2552 120.672 73.2552 119.221C73.2434 119.101 73.2782 118.98 73.3524 118.885C73.4267 118.789 73.5348 118.725 73.655 118.705C74.3746 118.507 74.3786 118.511 74.3786 119.264L74.3866 121.291Z" fill="white"/>
<path d="M40.2286 121.283C40.2286 122.025 40.2286 122.763 40.2286 123.5C40.2286 123.976 40.1527 124.036 39.609 124.032C39.1692 124.032 39.1052 123.964 39.1052 123.512C39.1052 122.124 39.1052 120.736 39.1052 119.348C39.0828 119.202 39.1181 119.052 39.2037 118.931C39.2893 118.81 39.4187 118.726 39.565 118.697C40.1727 118.491 40.2366 118.531 40.2366 119.185V121.283H40.2286Z" fill="white"/>
<path d="M166.602 97.5929C166.602 98.3504 166.435 98.5488 165.695 98.7034C165.491 98.6992 165.292 98.6392 165.12 98.53C164.947 98.4209 164.809 98.2668 164.719 98.0847C164.642 97.9465 164.599 97.7922 164.594 97.6344C164.588 97.4766 164.62 97.3197 164.687 97.1765C164.799 96.9861 164.839 96.7045 164.999 96.6053C165.233 96.4781 165.502 96.4254 165.767 96.4546C166.379 96.5062 166.61 96.8592 166.602 97.5929Z" fill="white"/>
<path d="M163.044 100.494C163.03 100.356 163.045 100.218 163.088 100.086C163.13 99.9547 163.2 99.8333 163.291 99.7295C163.383 99.6258 163.496 99.5418 163.622 99.483C163.748 99.4241 163.884 99.3915 164.024 99.3873C164.711 99.3873 165.027 99.7839 165.043 100.522C165.059 101.259 164.643 101.676 164.064 101.668C163.919 101.657 163.778 101.619 163.648 101.554C163.518 101.489 163.403 101.4 163.308 101.291C163.214 101.182 163.142 101.055 163.096 100.918C163.051 100.782 163.033 100.637 163.044 100.494Z" fill="white"/>
<path d="M168.07 100.472C168.134 101.142 167.866 101.535 167.358 101.622C167.079 101.646 166.802 101.567 166.578 101.4C166.378 101.196 166.213 100.96 166.091 100.702C166.089 100.69 166.089 100.678 166.091 100.666C165.979 100.202 166.303 99.8732 166.55 99.6075C166.676 99.4897 166.834 99.4118 167.004 99.3835C167.174 99.3553 167.349 99.378 167.506 99.4488C167.714 99.5148 167.889 99.658 167.994 99.8485C168.099 100.039 168.126 100.262 168.07 100.472Z" fill="white"/>
<path d="M125.589 111.581C125.571 111.449 125.584 111.315 125.626 111.189C125.668 111.063 125.738 110.947 125.831 110.851C125.924 110.755 126.037 110.681 126.162 110.635C126.288 110.588 126.422 110.57 126.556 110.582C127.244 110.582 127.647 110.951 127.595 111.629C127.544 112.307 127.244 112.719 126.544 112.7C126.405 112.694 126.27 112.659 126.145 112.599C126.02 112.538 125.91 112.452 125.82 112.347C125.73 112.242 125.664 112.12 125.624 111.988C125.584 111.856 125.572 111.718 125.589 111.581Z" fill="white"/>
<path d="M28.6467 113.027C27.8711 113.027 27.6192 112.63 27.5432 111.952C27.4953 111.5 28.0949 111.024 28.6427 110.996C29.3703 110.957 29.5662 111.341 29.6501 112.04C29.7301 112.666 29.3263 113.023 28.6467 113.027Z" fill="white"/>
<path d="M32.9242 112.082C32.9682 112.745 32.6124 112.994 31.8968 113.026C31.1811 113.058 30.8973 112.705 30.9053 111.979C30.8963 111.841 30.918 111.702 30.9687 111.573C31.0194 111.444 31.098 111.327 31.1989 111.231C31.2998 111.135 31.4206 111.062 31.5529 111.017C31.6852 110.973 31.8257 110.957 31.9647 110.972C32.4965 110.995 32.9722 111.257 32.9242 112.082Z" fill="white"/>
<path d="M82.3307 110.188C82.9264 110.12 83.2862 110.529 83.2982 111.251C83.3098 111.376 83.2935 111.502 83.2505 111.621C83.2074 111.74 83.1386 111.847 83.049 111.936C82.9594 112.026 82.8512 112.094 82.7319 112.138C82.6126 112.181 82.4852 112.198 82.3587 112.187C81.747 112.187 81.2273 111.814 81.2513 111.27C81.2713 110.537 81.6191 110.148 82.3307 110.188Z" fill="white"/>
<path d="M140.748 97.0929C140.748 97.5768 140.204 98.2034 139.744 98.1836C139.506 98.1824 139.275 98.0982 139.093 97.9456C138.968 97.8298 138.869 97.6889 138.804 97.5322C138.738 97.3756 138.707 97.2069 138.713 97.0374C138.711 96.9029 138.737 96.7695 138.788 96.6451C138.84 96.5206 138.916 96.4077 139.012 96.313C139.108 96.2183 139.223 96.1437 139.348 96.0937C139.474 96.0438 139.609 96.0194 139.744 96.022C140.019 96.0354 140.278 96.1549 140.466 96.3549C140.653 96.555 140.754 96.8198 140.748 97.0929Z" fill="white"/>
<path d="M85.58 110.182C85.7185 110.174 85.8573 110.193 85.9877 110.24C86.1182 110.287 86.2376 110.36 86.3384 110.454C86.4393 110.549 86.5195 110.663 86.574 110.789C86.6286 110.916 86.6563 111.052 86.6555 111.19C86.6593 111.325 86.6343 111.46 86.5821 111.585C86.5298 111.711 86.4515 111.824 86.3523 111.917C86.2531 112.01 86.1351 112.081 86.0062 112.126C85.8772 112.171 85.7402 112.189 85.604 112.177C85.4587 112.185 85.3135 112.162 85.1777 112.11C85.0419 112.058 84.9186 111.979 84.8157 111.877C84.7128 111.775 84.6327 111.652 84.5805 111.518C84.5283 111.383 84.5051 111.239 84.5126 111.095C84.5525 110.842 84.6817 110.611 84.8773 110.444C85.0728 110.277 85.3219 110.184 85.58 110.182Z" fill="white"/>
<path d="M8.44497 102.245C8.30917 102.258 8.17218 102.242 8.0428 102.199C7.91341 102.156 7.79448 102.087 7.69361 101.996C7.59274 101.905 7.51217 101.794 7.45705 101.67C7.40194 101.546 7.37349 101.413 7.37354 101.277C7.37345 101.138 7.40169 101 7.45657 100.871C7.51144 100.743 7.59183 100.627 7.69294 100.53C7.79405 100.433 7.9138 100.357 8.04507 100.307C8.17633 100.257 8.31642 100.233 8.45697 100.238C8.93272 100.238 9.52841 100.77 9.50842 101.17C9.51951 101.312 9.49977 101.455 9.45053 101.589C9.40128 101.724 9.32368 101.846 9.22294 101.947C9.12219 102.049 9.00064 102.128 8.86645 102.18C8.73226 102.231 8.58855 102.253 8.44497 102.245Z" fill="white"/>
<path d="M136.442 96.0069C136.882 95.9276 137.541 96.5582 137.549 97.0778C137.489 97.344 137.353 97.5875 137.157 97.7793C136.962 97.9712 136.715 98.1035 136.446 98.1605C135.958 98.1804 135.547 97.6806 135.511 97.1174C135.471 96.3639 135.974 96.0069 136.442 96.0069Z" fill="white"/>
<path d="M5.16288 102.253C4.46325 102.253 4.12743 101.936 4.1754 101.143C4.16804 101.013 4.19036 100.883 4.24069 100.763C4.29103 100.642 4.36807 100.535 4.46608 100.449C4.56408 100.362 4.68053 100.299 4.80672 100.263C4.93291 100.227 5.06559 100.22 5.19487 100.243C5.33107 100.232 5.46794 100.251 5.59584 100.299C5.72375 100.346 5.8396 100.421 5.93524 100.518C6.03088 100.615 6.104 100.731 6.14946 100.859C6.19491 100.987 6.2116 101.123 6.19834 101.258C6.20504 101.393 6.18258 101.528 6.13247 101.654C6.08236 101.78 6.00574 101.894 5.90774 101.988C5.80974 102.082 5.69261 102.155 5.56416 102.2C5.43572 102.246 5.29891 102.264 5.16288 102.253Z" fill="white"/>
<path d="M117.408 104.388C117.272 104.405 117.133 104.39 117.003 104.345C116.874 104.3 116.756 104.225 116.661 104.127C116.565 104.028 116.494 103.909 116.453 103.779C116.412 103.649 116.402 103.511 116.425 103.376C116.422 103.239 116.448 103.104 116.501 102.977C116.554 102.851 116.633 102.737 116.732 102.643C116.832 102.548 116.95 102.475 117.079 102.428C117.209 102.381 117.347 102.361 117.484 102.369C117.751 102.384 118 102.503 118.179 102.7C118.358 102.896 118.452 103.155 118.44 103.42C118.452 104.15 118.172 104.399 117.408 104.388Z" fill="white"/>
<path d="M73.2231 116.604C73.2547 116.459 73.3278 116.327 73.4335 116.223C73.5392 116.119 73.673 116.047 73.8188 116.017C73.9703 116.023 74.1139 116.085 74.2207 116.192C74.3275 116.299 74.3896 116.442 74.3945 116.592C74.3808 116.734 74.3248 116.868 74.2336 116.978C74.1425 117.089 74.0204 117.169 73.8828 117.211C73.726 117.182 73.5805 117.11 73.4636 117.003C73.3467 116.895 73.2633 116.757 73.2231 116.604Z" fill="white"/>
<path d="M39.0928 116.588C39.0928 116.318 39.4526 115.942 39.6925 116.041C39.9298 116.168 40.1223 116.365 40.2442 116.604C40.3321 116.755 39.8844 117.175 39.6645 117.195C39.4446 117.215 39.0928 116.81 39.0928 116.588Z" fill="white"/>
<path d="M139.541 124.066C139.077 124.066 139.009 123.994 139.013 123.542C139.013 123.146 139.145 123.046 139.561 123.046C139.976 123.046 140.052 123.165 140.052 123.558C140.052 123.951 139.972 124.074 139.541 124.066Z" fill="white"/>
</mask>
<g mask="url(#mask0_150_39747)">
<rect x="-14" y="-28" width="200" height="200" fill="#D9D9D9"/>
</g>
</svg>
